<?xml version="1.0" encoding="utf-8"?>
<svg version="1.1" xmlns:xlink="http://www.w3.org/1999/xlink" width="101px" height="61px" xmlns="http://www.w3.org/2000/svg">
  <defs>
    <pattern id="BGPattern" patternUnits="userSpaceOnUse" alignment="0 0" imageRepeat="None" />
    <mask fill="white" id="Clip247">
      <path d="M 100 0  L 0 0  L 0 60  L 100 60  L 100 0  Z " fill-rule="evenodd" />
    </mask>
  </defs>
  <g transform="matrix(1 0 0 1 -1113 -1042 )">
    <path d="M 100 0  L 0 0  L 0 60  L 100 60  L 100 0  Z " fill-rule="nonzero" fill="rgba(255, 255, 255, 1)" stroke="none" transform="matrix(1 0 0 1 1113 1042 )" class="fill" />
    <path d="M 100 0  L 0 0  L 0 60  L 100 60  L 100 0  Z " stroke-width="2" stroke-dasharray="0" stroke="rgba(121, 121, 121, 1)" fill="none" transform="matrix(1 0 0 1 1113 1042 )" class="stroke" mask="url(#Clip247)" />
    <path d="M 10.5 0  L 10.5 60  M 89.5 0  L 89.5 60  " stroke-width="1" stroke-dasharray="0" stroke="rgba(121, 121, 121, 1)" fill="none" transform="matrix(1 0 0 1 1113 1042 )" class="stroke" />
  </g>
</svg>