<?xml version="1.0" encoding="utf-8"?>
<svg version="1.1" xmlns:xlink="http://www.w3.org/1999/xlink" width="50px" height="50px" xmlns="http://www.w3.org/2000/svg">
  <defs>
    <pattern id="BGPattern" patternUnits="userSpaceOnUse" alignment="0 0" imageRepeat="None" />
    <mask fill="white" id="Clip225">
      <path d="M 0 25  C 0 10.999999999999998  10.999999999999998 0  25 0  C 39 0  50 10.999999999999998  50 25  C 50 39  39 50  25 50  C 10.999999999999998 50  0 39  0 25  Z " fill-rule="evenodd" />
    </mask>
  </defs>
  <g transform="matrix(1 0 0 1 -79 -340 )">
    <path d="M 0 25  C 0 10.999999999999998  10.999999999999998 0  25 0  C 39 0  50 10.999999999999998  50 25  C 50 39  39 50  25 50  C 10.999999999999998 50  0 39  0 25  Z " fill-rule="nonzero" fill="rgba(255, 255, 255, 1)" stroke="none" transform="matrix(1 0 0 1 79 340 )" class="fill" />
    <path d="M 0 25  C 0 10.999999999999998  10.999999999999998 0  25 0  C 39 0  50 10.999999999999998  50 25  C 50 39  39 50  25 50  C 10.999999999999998 50  0 39  0 25  Z " stroke-width="2" stroke-dasharray="0" stroke="rgba(121, 121, 121, 1)" fill="none" transform="matrix(1 0 0 1 79 340 )" class="stroke" mask="url(#Clip225)" />
  </g>
</svg>