<?xml version="1.0" encoding="utf-8"?>
<svg version="1.1" xmlns:xlink="http://www.w3.org/1999/xlink" width="51px" height="51px" xmlns="http://www.w3.org/2000/svg">
  <defs>
    <pattern id="BGPattern" patternUnits="userSpaceOnUse" alignment="0 0" imageRepeat="None" />
    <mask fill="white" id="Clip234">
      <path d="M 25 0  C 39.00000000000002 0  50 11.000000000000014  50 25  C 50 38.999999999999986  39.00000000000002 50  25 50  C 10.999999999999979 50  0 39.00000000000002  0 25  C 0 10.999999999999996  10.999999999999979 0  25 0  Z " fill-rule="evenodd" />
    </mask>
  </defs>
  <g transform="matrix(1 0 0 1 -1065 -342 )">
    <path d="M 25 0  C 39.00000000000002 0  50 11.000000000000014  50 25  C 50 38.999999999999986  39.00000000000002 50  25 50  C 10.999999999999979 50  0 39.00000000000002  0 25  C 0 10.999999999999996  10.999999999999979 0  25 0  Z " fill-rule="nonzero" fill="rgba(255, 255, 255, 1)" stroke="none" transform="matrix(1 0 0 1 1065 342 )" class="fill" />
    <path d="M 25 0  C 39.00000000000002 0  50 11.000000000000014  50 25  C 50 38.999999999999986  39.00000000000002 50  25 50  C 10.999999999999979 50  0 39.00000000000002  0 25  C 0 10.999999999999996  10.999999999999979 0  25 0  Z " stroke-width="2" stroke-dasharray="0" stroke="rgba(121, 121, 121, 1)" fill="none" transform="matrix(1 0 0 1 1065 342 )" class="stroke" mask="url(#Clip234)" />
    <path d="M 7.364341085271313 7.235142118863055  L 42.65625 42.65625  M 7.364341085271313 42.65625  L 42.65625 7.235142118863055  " stroke-width="1" stroke-dasharray="0" stroke="rgba(121, 121, 121, 1)" fill="none" transform="matrix(1 0 0 1 1065 342 )" class="stroke" />
  </g>
</svg>