<?xml version="1.0" encoding="utf-8"?>
<svg version="1.1" xmlns:xlink="http://www.w3.org/1999/xlink" width="12px" height="12px" xmlns="http://www.w3.org/2000/svg">
  <defs>
    <pattern id="BGPattern" patternUnits="userSpaceOnUse" alignment="0 0" imageRepeat="None" />
    <mask fill="white" id="Clip248">
      <path d="M 11.761363636363637 4.6022727272727275  C 11.920454545454547 4.761363636363635  12 4.954545454545454  12 5.181818181818182  L 12 6.8181818181818175  C 12 7.045454545454546  11.920454545454547 7.238636363636363  11.761363636363637 7.3977272727272725  C 11.602272727272728 7.556818181818181  11.40909090909091 7.636363636363637  11.181818181818182 7.636363636363637  L 7.636363636363637 7.636363636363637  L 7.636363636363637 11.181818181818183  C 7.636363636363637 11.40909090909091  7.556818181818182 11.602272727272727  7.3977272727272725 11.761363636363637  C 7.238636363636365 11.920454545454547  7.045454545454546 12  6.818181818181818 12  L 5.181818181818182 12  C 4.954545454545455 12  4.761363636363637 11.920454545454547  4.6022727272727275 11.761363636363637  C 4.443181818181818 11.602272727272727  4.363636363636363 11.40909090909091  4.363636363636363 11.181818181818183  L 4.363636363636363 7.636363636363637  L 0.8181818181818181 7.636363636363637  C 0.5909090909090909 7.636363636363637  0.3977272727272728 7.556818181818181  0.23863636363636365 7.3977272727272725  C 0.07954545454545453 7.238636363636363  0 7.045454545454546  0 6.8181818181818175  L 0 5.181818181818182  C 0 4.954545454545454  0.07954545454545453 4.761363636363635  0.23863636363636365 4.6022727272727275  C 0.3977272727272728 4.443181818181818  0.5909090909090909 4.363636363636363  0.8181818181818181 4.363636363636363  L 4.363636363636363 4.363636363636363  L 4.363636363636363 0.8181818181818188  C 4.363636363636363 0.5909090909090904  4.443181818181818 0.39772727272727204  4.6022727272727275 0.23863636363636376  C 4.761363636363637 0.07954545454545414  4.954545454545455 0  5.181818181818182 0  L 6.818181818181818 0  C 7.045454545454546 0  7.238636363636365 0.07954545454545414  7.3977272727272725 0.23863636363636376  C 7.556818181818182 0.39772727272727204  7.636363636363637 0.5909090909090904  7.636363636363637 0.8181818181818188  L 7.636363636363637 4.363636363636363  L 11.181818181818182 4.363636363636363  C 11.40909090909091 4.363636363636363  11.602272727272728 4.443181818181818  11.761363636363637 4.6022727272727275  Z " fill-rule="evenodd" />
    </mask>
  </defs>
  <g transform="matrix(1 0 0 1 -331 -263 )">
    <path d="M 11.761363636363637 4.6022727272727275  C 11.920454545454547 4.761363636363635  12 4.954545454545454  12 5.181818181818182  L 12 6.8181818181818175  C 12 7.045454545454546  11.920454545454547 7.238636363636363  11.761363636363637 7.3977272727272725  C 11.602272727272728 7.556818181818181  11.40909090909091 7.636363636363637  11.181818181818182 7.636363636363637  L 7.636363636363637 7.636363636363637  L 7.636363636363637 11.181818181818183  C 7.636363636363637 11.40909090909091  7.556818181818182 11.602272727272727  7.3977272727272725 11.761363636363637  C 7.238636363636365 11.920454545454547  7.045454545454546 12  6.818181818181818 12  L 5.181818181818182 12  C 4.954545454545455 12  4.761363636363637 11.920454545454547  4.6022727272727275 11.761363636363637  C 4.443181818181818 11.602272727272727  4.363636363636363 11.40909090909091  4.363636363636363 11.181818181818183  L 4.363636363636363 7.636363636363637  L 0.8181818181818181 7.636363636363637  C 0.5909090909090909 7.636363636363637  0.3977272727272728 7.556818181818181  0.23863636363636365 7.3977272727272725  C 0.07954545454545453 7.238636363636363  0 7.045454545454546  0 6.8181818181818175  L 0 5.181818181818182  C 0 4.954545454545454  0.07954545454545453 4.761363636363635  0.23863636363636365 4.6022727272727275  C 0.3977272727272728 4.443181818181818  0.5909090909090909 4.363636363636363  0.8181818181818181 4.363636363636363  L 4.363636363636363 4.363636363636363  L 4.363636363636363 0.8181818181818188  C 4.363636363636363 0.5909090909090904  4.443181818181818 0.39772727272727204  4.6022727272727275 0.23863636363636376  C 4.761363636363637 0.07954545454545414  4.954545454545455 0  5.181818181818182 0  L 6.818181818181818 0  C 7.045454545454546 0  7.238636363636365 0.07954545454545414  7.3977272727272725 0.23863636363636376  C 7.556818181818182 0.39772727272727204  7.636363636363637 0.5909090909090904  7.636363636363637 0.8181818181818188  L 7.636363636363637 4.363636363636363  L 11.181818181818182 4.363636363636363  C 11.40909090909091 4.363636363636363  11.602272727272728 4.443181818181818  11.761363636363637 4.6022727272727275  Z " fill-rule="nonzero" fill="rgba(0, 153, 204, 1)" stroke="none" transform="matrix(1 0 0 1 331 263 )" class="fill" />
    <path d="M 11.761363636363637 4.6022727272727275  C 11.920454545454547 4.761363636363635  12 4.954545454545454  12 5.181818181818182  L 12 6.8181818181818175  C 12 7.045454545454546  11.920454545454547 7.238636363636363  11.761363636363637 7.3977272727272725  C 11.602272727272728 7.556818181818181  11.40909090909091 7.636363636363637  11.181818181818182 7.636363636363637  L 7.636363636363637 7.636363636363637  L 7.636363636363637 11.181818181818183  C 7.636363636363637 11.40909090909091  7.556818181818182 11.602272727272727  7.3977272727272725 11.761363636363637  C 7.238636363636365 11.920454545454547  7.045454545454546 12  6.818181818181818 12  L 5.181818181818182 12  C 4.954545454545455 12  4.761363636363637 11.920454545454547  4.6022727272727275 11.761363636363637  C 4.443181818181818 11.602272727272727  4.363636363636363 11.40909090909091  4.363636363636363 11.181818181818183  L 4.363636363636363 7.636363636363637  L 0.8181818181818181 7.636363636363637  C 0.5909090909090909 7.636363636363637  0.3977272727272728 7.556818181818181  0.23863636363636365 7.3977272727272725  C 0.07954545454545453 7.238636363636363  0 7.045454545454546  0 6.8181818181818175  L 0 5.181818181818182  C 0 4.954545454545454  0.07954545454545453 4.761363636363635  0.23863636363636365 4.6022727272727275  C 0.3977272727272728 4.443181818181818  0.5909090909090909 4.363636363636363  0.8181818181818181 4.363636363636363  L 4.363636363636363 4.363636363636363  L 4.363636363636363 0.8181818181818188  C 4.363636363636363 0.5909090909090904  4.443181818181818 0.39772727272727204  4.6022727272727275 0.23863636363636376  C 4.761363636363637 0.07954545454545414  4.954545454545455 0  5.181818181818182 0  L 6.818181818181818 0  C 7.045454545454546 0  7.238636363636365 0.07954545454545414  7.3977272727272725 0.23863636363636376  C 7.556818181818182 0.39772727272727204  7.636363636363637 0.5909090909090904  7.636363636363637 0.8181818181818188  L 7.636363636363637 4.363636363636363  L 11.181818181818182 4.363636363636363  C 11.40909090909091 4.363636363636363  11.602272727272728 4.443181818181818  11.761363636363637 4.6022727272727275  Z " stroke-width="0" stroke-dasharray="0" stroke="rgba(255, 255, 255, 0)" fill="none" transform="matrix(1 0 0 1 331 263 )" class="stroke" mask="url(#Clip248)" />
  </g>
</svg>