<?xml version="1.0" encoding="utf-8"?>
<svg version="1.1" xmlns:xlink="http://www.w3.org/1999/xlink" width="12px" height="12px" xmlns="http://www.w3.org/2000/svg">
  <defs>
    <pattern id="BGPattern" patternUnits="userSpaceOnUse" alignment="0 0" imageRepeat="None" />
    <mask fill="white" id="Clip249">
      <path d="M 7.4140625 7.414062500000001  C 7.8046875 7.023437499999999  8 6.552083333333333  8 6  C 8 5.447916666666666  7.8046875 4.9765625  7.4140625 4.5859375  C 7.0234375 4.1953125  6.552083333333334 4  6 4  C 5.447916666666667 4  4.9765625 4.1953125  4.5859375 4.5859375  C 4.1953125 4.9765625  4 5.447916666666666  4 6  C 4 6.552083333333333  4.1953125 7.023437499999999  4.5859375 7.414062500000001  C 4.9765625 7.8046875  5.447916666666667 8  6 8  C 6.552083333333334 8  7.0234375 7.8046875  7.4140625 7.414062500000001  Z M 11.9375 4.96484375  C 11.979166666666666 5.01953125  12 5.080729166666666  12 5.1484375  L 12 6.882812499999999  C 12 6.945312500000001  11.979166666666666 7.005208333333334  11.9375 7.062500000000001  C 11.895833333333334 7.119791666666665  11.84375 7.153645833333332  11.78125 7.164062499999999  L 10.3359375 7.3828125  C 10.236979166666668 7.6640625  10.135416666666668 7.901041666666666  10.03125 8.09375  C 10.213541666666668 8.354166666666668  10.4921875 8.713541666666664  10.8671875 9.171875  C 10.919270833333334 9.234375  10.9453125 9.299479166666666  10.9453125 9.3671875  C 10.9453125 9.434895833333334  10.921875 9.494791666666666  10.875 9.546875  C 10.734375 9.739583333333334  10.4765625 10.020833333333334  10.1015625 10.390625  C 9.7265625 10.760416666666666  9.481770833333334 10.9453125  9.3671875 10.9453125  C 9.3046875 10.9453125  9.236979166666668 10.921875  9.1640625 10.875  L 8.0859375 10.03125  C 7.856770833333334 10.151041666666666  7.619791666666668 10.25  7.375 10.328125  C 7.291666666666668 11.036458333333334  7.216145833333334 11.520833333333334  7.1484375 11.78125  C 7.111979166666667 11.927083333333334  7.018229166666667 12  6.8671875 12  L 5.1328125 12  C 5.059895833333334 12  4.99609375 11.977864583333334  4.94140625 11.93359375  C 4.88671875 11.889322916666666  4.856770833333334 11.833333333333334  4.8515625 11.765625  L 4.6328125 10.328125  C 4.377604166666667 10.244791666666666  4.143229166666667 10.1484375  3.9296875 10.0390625  L 2.828125 10.875  C 2.776041666666667 10.921875  2.7109375 10.9453125  2.6328125 10.9453125  C 2.5598958333333335 10.9453125  2.494791666666667 10.916666666666666  2.4375 10.859375  C 1.78125 10.265625  1.3515625 9.828125  1.1484375 9.546875  C 1.1119791666666667 9.494791666666666  1.09375 9.434895833333334  1.09375 9.3671875  C 1.09375 9.3046875  1.1145833333333335 9.244791666666666  1.15625 9.1875  C 1.234375 9.078125  1.3671875 8.904947916666668  1.5546875 8.66796875  C 1.7421875 8.430989583333332  1.8828125 8.247395833333332  1.9765625 8.1171875  C 1.8359375 7.856770833333332  1.729166666666667 7.598958333333332  1.65625 7.343750000000001  L 0.2265625 7.132812500000001  C 0.15885416666666669 7.122395833333334  0.10416666666666667 7.08984375  0.0625 7.035156249999999  C 0.020833333333333332 6.980468750000001  0 6.919270833333332  0 6.851562500000001  L 0 5.1171875  C 0 5.0546875  0.020833333333333332 4.994791666666666  0.0625 4.9375  C 0.10416666666666667 4.880208333333334  0.15364583333333334 4.846354166666666  0.2109375 4.8359375  L 1.6640625 4.6171875  C 1.7369791666666667 4.377604166666666  1.8385416666666665 4.138020833333333  1.96875 3.8984374999999996  C 1.7604166666666667 3.6015625000000004  1.4817708333333335 3.2421874999999996  1.1328125 2.8203124999999996  C 1.0807291666666667 2.7578125000000004  1.0546875 2.6953125  1.0546875 2.6328124999999996  C 1.0546875 2.580729166666666  1.078125 2.5208333333333317  1.125 2.4531250000000004  C 1.2604166666666667 2.2656250000000004  1.5169270833333335 1.9856770833333321  1.89453125 1.6132812499999996  C 2.272135416666667 1.2408854166666656  2.518229166666667 1.0546875  2.6328125 1.0546875  C 2.7005208333333335 1.0546875  2.768229166666667 1.080729166666666  2.8359375 1.1328124999999996  L 3.9140625 1.96875  C 4.143229166666667 1.8489583333333326  4.380208333333334 1.7500000000000004  4.625 1.6718749999999996  C 4.708333333333334 0.9635416666666661  4.783854166666667 0.47916666666666563  4.8515625 0.21874999999999956  C 4.888020833333334 0.07291666666666607  4.981770833333334 0  5.1328125 0  L 6.8671875 0  C 6.940104166666668 0  7.00390625 0.02213541666666563  7.05859375 0.06640624999999956  C 7.11328125 0.11067708333333215  7.143229166666666 0.16666666666666607  7.1484375 0.234375  L 7.3671875 1.6718749999999996  C 7.622395833333334 1.7552083333333326  7.856770833333334 1.8515625  8.0703125 1.9609375000000004  L 9.1796875 1.125  C 9.2265625 1.078125  9.2890625 1.0546875  9.3671875 1.0546875  C 9.434895833333334 1.0546875  9.5 1.080729166666666  9.5625 1.1328124999999996  C 10.234375 1.7526041666666665  10.6640625 2.1953125000000004  10.8515625 2.4609375  C 10.888020833333334 2.5026041666666665  10.90625 2.559895833333332  10.90625 2.6328124999999996  C 10.90625 2.6953125  10.885416666666668 2.7552083333333317  10.84375 2.8125  C 10.765625 2.9218750000000004  10.6328125 3.0950520833333317  10.4453125 3.3320312500000004  C 10.2578125 3.5690104166666665  10.1171875 3.752604166666666  10.0234375 3.8828125000000004  C 10.158854166666668 4.143229166666666  10.265625 4.398437499999999  10.34375 4.6484375  L 11.7734375 4.8671875  C 11.841145833333334 4.877604166666666  11.895833333333334 4.910156249999998  11.9375 4.96484375  Z " fill-rule="evenodd" />
    </mask>
  </defs>
  <g transform="matrix(1 0 0 1 -430 -263 )">
    <path d="M 7.4140625 7.414062500000001  C 7.8046875 7.023437499999999  8 6.552083333333333  8 6  C 8 5.447916666666666  7.8046875 4.9765625  7.4140625 4.5859375  C 7.0234375 4.1953125  6.552083333333334 4  6 4  C 5.447916666666667 4  4.9765625 4.1953125  4.5859375 4.5859375  C 4.1953125 4.9765625  4 5.447916666666666  4 6  C 4 6.552083333333333  4.1953125 7.023437499999999  4.5859375 7.414062500000001  C 4.9765625 7.8046875  5.447916666666667 8  6 8  C 6.552083333333334 8  7.0234375 7.8046875  7.4140625 7.414062500000001  Z M 11.9375 4.96484375  C 11.979166666666666 5.01953125  12 5.080729166666666  12 5.1484375  L 12 6.882812499999999  C 12 6.945312500000001  11.979166666666666 7.005208333333334  11.9375 7.062500000000001  C 11.895833333333334 7.119791666666665  11.84375 7.153645833333332  11.78125 7.164062499999999  L 10.3359375 7.3828125  C 10.236979166666668 7.6640625  10.135416666666668 7.901041666666666  10.03125 8.09375  C 10.213541666666668 8.354166666666668  10.4921875 8.713541666666664  10.8671875 9.171875  C 10.919270833333334 9.234375  10.9453125 9.299479166666666  10.9453125 9.3671875  C 10.9453125 9.434895833333334  10.921875 9.494791666666666  10.875 9.546875  C 10.734375 9.739583333333334  10.4765625 10.020833333333334  10.1015625 10.390625  C 9.7265625 10.760416666666666  9.481770833333334 10.9453125  9.3671875 10.9453125  C 9.3046875 10.9453125  9.236979166666668 10.921875  9.1640625 10.875  L 8.0859375 10.03125  C 7.856770833333334 10.151041666666666  7.619791666666668 10.25  7.375 10.328125  C 7.291666666666668 11.036458333333334  7.216145833333334 11.520833333333334  7.1484375 11.78125  C 7.111979166666667 11.927083333333334  7.018229166666667 12  6.8671875 12  L 5.1328125 12  C 5.059895833333334 12  4.99609375 11.977864583333334  4.94140625 11.93359375  C 4.88671875 11.889322916666666  4.856770833333334 11.833333333333334  4.8515625 11.765625  L 4.6328125 10.328125  C 4.377604166666667 10.244791666666666  4.143229166666667 10.1484375  3.9296875 10.0390625  L 2.828125 10.875  C 2.776041666666667 10.921875  2.7109375 10.9453125  2.6328125 10.9453125  C 2.5598958333333335 10.9453125  2.494791666666667 10.916666666666666  2.4375 10.859375  C 1.78125 10.265625  1.3515625 9.828125  1.1484375 9.546875  C 1.1119791666666667 9.494791666666666  1.09375 9.434895833333334  1.09375 9.3671875  C 1.09375 9.3046875  1.1145833333333335 9.244791666666666  1.15625 9.1875  C 1.234375 9.078125  1.3671875 8.904947916666668  1.5546875 8.66796875  C 1.7421875 8.430989583333332  1.8828125 8.247395833333332  1.9765625 8.1171875  C 1.8359375 7.856770833333332  1.729166666666667 7.598958333333332  1.65625 7.343750000000001  L 0.2265625 7.132812500000001  C 0.15885416666666669 7.122395833333334  0.10416666666666667 7.08984375  0.0625 7.035156249999999  C 0.020833333333333332 6.980468750000001  0 6.919270833333332  0 6.851562500000001  L 0 5.1171875  C 0 5.0546875  0.020833333333333332 4.994791666666666  0.0625 4.9375  C 0.10416666666666667 4.880208333333334  0.15364583333333334 4.846354166666666  0.2109375 4.8359375  L 1.6640625 4.6171875  C 1.7369791666666667 4.377604166666666  1.8385416666666665 4.138020833333333  1.96875 3.8984374999999996  C 1.7604166666666667 3.6015625000000004  1.4817708333333335 3.2421874999999996  1.1328125 2.8203124999999996  C 1.0807291666666667 2.7578125000000004  1.0546875 2.6953125  1.0546875 2.6328124999999996  C 1.0546875 2.580729166666666  1.078125 2.5208333333333317  1.125 2.4531250000000004  C 1.2604166666666667 2.2656250000000004  1.5169270833333335 1.9856770833333321  1.89453125 1.6132812499999996  C 2.272135416666667 1.2408854166666656  2.518229166666667 1.0546875  2.6328125 1.0546875  C 2.7005208333333335 1.0546875  2.768229166666667 1.080729166666666  2.8359375 1.1328124999999996  L 3.9140625 1.96875  C 4.143229166666667 1.8489583333333326  4.380208333333334 1.7500000000000004  4.625 1.6718749999999996  C 4.708333333333334 0.9635416666666661  4.783854166666667 0.47916666666666563  4.8515625 0.21874999999999956  C 4.888020833333334 0.07291666666666607  4.981770833333334 0  5.1328125 0  L 6.8671875 0  C 6.940104166666668 0  7.00390625 0.02213541666666563  7.05859375 0.06640624999999956  C 7.11328125 0.11067708333333215  7.143229166666666 0.16666666666666607  7.1484375 0.234375  L 7.3671875 1.6718749999999996  C 7.622395833333334 1.7552083333333326  7.856770833333334 1.8515625  8.0703125 1.9609375000000004  L 9.1796875 1.125  C 9.2265625 1.078125  9.2890625 1.0546875  9.3671875 1.0546875  C 9.434895833333334 1.0546875  9.5 1.080729166666666  9.5625 1.1328124999999996  C 10.234375 1.7526041666666665  10.6640625 2.1953125000000004  10.8515625 2.4609375  C 10.888020833333334 2.5026041666666665  10.90625 2.559895833333332  10.90625 2.6328124999999996  C 10.90625 2.6953125  10.885416666666668 2.7552083333333317  10.84375 2.8125  C 10.765625 2.9218750000000004  10.6328125 3.0950520833333317  10.4453125 3.3320312500000004  C 10.2578125 3.5690104166666665  10.1171875 3.752604166666666  10.0234375 3.8828125000000004  C 10.158854166666668 4.143229166666666  10.265625 4.398437499999999  10.34375 4.6484375  L 11.7734375 4.8671875  C 11.841145833333334 4.877604166666666  11.895833333333334 4.910156249999998  11.9375 4.96484375  Z " fill-rule="nonzero" fill="rgba(0, 153, 204, 1)" stroke="none" transform="matrix(1 0 0 1 430 263 )" class="fill" />
    <path d="M 7.4140625 7.414062500000001  C 7.8046875 7.023437499999999  8 6.552083333333333  8 6  C 8 5.447916666666666  7.8046875 4.9765625  7.4140625 4.5859375  C 7.0234375 4.1953125  6.552083333333334 4  6 4  C 5.447916666666667 4  4.9765625 4.1953125  4.5859375 4.5859375  C 4.1953125 4.9765625  4 5.447916666666666  4 6  C 4 6.552083333333333  4.1953125 7.023437499999999  4.5859375 7.414062500000001  C 4.9765625 7.8046875  5.447916666666667 8  6 8  C 6.552083333333334 8  7.0234375 7.8046875  7.4140625 7.414062500000001  Z " stroke-width="0" stroke-dasharray="0" stroke="rgba(255, 255, 255, 0)" fill="none" transform="matrix(1 0 0 1 430 263 )" class="stroke" mask="url(#Clip249)" />
    <path d="M 11.9375 4.96484375  C 11.979166666666666 5.01953125  12 5.080729166666666  12 5.1484375  L 12 6.882812499999999  C 12 6.945312500000001  11.979166666666666 7.005208333333334  11.9375 7.062500000000001  C 11.895833333333334 7.119791666666665  11.84375 7.153645833333332  11.78125 7.164062499999999  L 10.3359375 7.3828125  C 10.236979166666668 7.6640625  10.135416666666668 7.901041666666666  10.03125 8.09375  C 10.213541666666668 8.354166666666668  10.4921875 8.713541666666664  10.8671875 9.171875  C 10.919270833333334 9.234375  10.9453125 9.299479166666666  10.9453125 9.3671875  C 10.9453125 9.434895833333334  10.921875 9.494791666666666  10.875 9.546875  C 10.734375 9.739583333333334  10.4765625 10.020833333333334  10.1015625 10.390625  C 9.7265625 10.760416666666666  9.481770833333334 10.9453125  9.3671875 10.9453125  C 9.3046875 10.9453125  9.236979166666668 10.921875  9.1640625 10.875  L 8.0859375 10.03125  C 7.856770833333334 10.151041666666666  7.619791666666668 10.25  7.375 10.328125  C 7.291666666666668 11.036458333333334  7.216145833333334 11.520833333333334  7.1484375 11.78125  C 7.111979166666667 11.927083333333334  7.018229166666667 12  6.8671875 12  L 5.1328125 12  C 5.059895833333334 12  4.99609375 11.977864583333334  4.94140625 11.93359375  C 4.88671875 11.889322916666666  4.856770833333334 11.833333333333334  4.8515625 11.765625  L 4.6328125 10.328125  C 4.377604166666667 10.244791666666666  4.143229166666667 10.1484375  3.9296875 10.0390625  L 2.828125 10.875  C 2.776041666666667 10.921875  2.7109375 10.9453125  2.6328125 10.9453125  C 2.5598958333333335 10.9453125  2.494791666666667 10.916666666666666  2.4375 10.859375  C 1.78125 10.265625  1.3515625 9.828125  1.1484375 9.546875  C 1.1119791666666667 9.494791666666666  1.09375 9.434895833333334  1.09375 9.3671875  C 1.09375 9.3046875  1.1145833333333335 9.244791666666666  1.15625 9.1875  C 1.234375 9.078125  1.3671875 8.904947916666668  1.5546875 8.66796875  C 1.7421875 8.430989583333332  1.8828125 8.247395833333332  1.9765625 8.1171875  C 1.8359375 7.856770833333332  1.729166666666667 7.598958333333332  1.65625 7.343750000000001  L 0.2265625 7.132812500000001  C 0.15885416666666669 7.122395833333334  0.10416666666666667 7.08984375  0.0625 7.035156249999999  C 0.020833333333333332 6.980468750000001  0 6.919270833333332  0 6.851562500000001  L 0 5.1171875  C 0 5.0546875  0.020833333333333332 4.994791666666666  0.0625 4.9375  C 0.10416666666666667 4.880208333333334  0.15364583333333334 4.846354166666666  0.2109375 4.8359375  L 1.6640625 4.6171875  C 1.7369791666666667 4.377604166666666  1.8385416666666665 4.138020833333333  1.96875 3.8984374999999996  C 1.7604166666666667 3.6015625000000004  1.4817708333333335 3.2421874999999996  1.1328125 2.8203124999999996  C 1.0807291666666667 2.7578125000000004  1.0546875 2.6953125  1.0546875 2.6328124999999996  C 1.0546875 2.580729166666666  1.078125 2.5208333333333317  1.125 2.4531250000000004  C 1.2604166666666667 2.2656250000000004  1.5169270833333335 1.9856770833333321  1.89453125 1.6132812499999996  C 2.272135416666667 1.2408854166666656  2.518229166666667 1.0546875  2.6328125 1.0546875  C 2.7005208333333335 1.0546875  2.768229166666667 1.080729166666666  2.8359375 1.1328124999999996  L 3.9140625 1.96875  C 4.143229166666667 1.8489583333333326  4.380208333333334 1.7500000000000004  4.625 1.6718749999999996  C 4.708333333333334 0.9635416666666661  4.783854166666667 0.47916666666666563  4.8515625 0.21874999999999956  C 4.888020833333334 0.07291666666666607  4.981770833333334 0  5.1328125 0  L 6.8671875 0  C 6.940104166666668 0  7.00390625 0.02213541666666563  7.05859375 0.06640624999999956  C 7.11328125 0.11067708333333215  7.143229166666666 0.16666666666666607  7.1484375 0.234375  L 7.3671875 1.6718749999999996  C 7.622395833333334 1.7552083333333326  7.856770833333334 1.8515625  8.0703125 1.9609375000000004  L 9.1796875 1.125  C 9.2265625 1.078125  9.2890625 1.0546875  9.3671875 1.0546875  C 9.434895833333334 1.0546875  9.5 1.080729166666666  9.5625 1.1328124999999996  C 10.234375 1.7526041666666665  10.6640625 2.1953125000000004  10.8515625 2.4609375  C 10.888020833333334 2.5026041666666665  10.90625 2.559895833333332  10.90625 2.6328124999999996  C 10.90625 2.6953125  10.885416666666668 2.7552083333333317  10.84375 2.8125  C 10.765625 2.9218750000000004  10.6328125 3.0950520833333317  10.4453125 3.3320312500000004  C 10.2578125 3.5690104166666665  10.1171875 3.752604166666666  10.0234375 3.8828125000000004  C 10.158854166666668 4.143229166666666  10.265625 4.398437499999999  10.34375 4.6484375  L 11.7734375 4.8671875  C 11.841145833333334 4.877604166666666  11.895833333333334 4.910156249999998  11.9375 4.96484375  Z " stroke-width="0" stroke-dasharray="0" stroke="rgba(255, 255, 255, 0)" fill="none" transform="matrix(1 0 0 1 430 263 )" class="stroke" mask="url(#Clip249)" />
  </g>
</svg>