<?xml version="1.0" encoding="utf-8"?>
<svg version="1.1" xmlns:xlink="http://www.w3.org/1999/xlink" width="7px" height="12px" xmlns="http://www.w3.org/2000/svg">
  <defs>
    <pattern id="BGPattern" patternUnits="userSpaceOnUse" alignment="0 0" imageRepeat="None" />
    <mask fill="white" id="Clip251">
      <path d="M 6.8797250859106525 0.7214428857715425  C 6.959908361970219 0.8016032064128242  7 0.893787575150299  7 0.9979959919839683  C 7 1.1022044088176348  6.959908361970219 1.1943887775551096  6.8797250859106525 1.2745490981963927  L 2.152920962199313 6  L 6.8797250859106525 10.725450901803608  C 6.959908361970219 10.80561122244489  7 10.897795591182364  7 11.002004008016032  C 7 11.1062124248497  6.959908361970219 11.198396793587174  6.8797250859106525 11.278557114228457  L 6.278350515463917 11.879759519038076  C 6.198167239404353 11.959919839679358  6.105956471935854 12  6.001718213058419 12  C 5.8974799541809855 12  5.805269186712486 11.959919839679358  5.725085910652921 11.879759519038076  L 0.1202749140893471 6.2765531062124245  C 0.040091638029782384 6.196392785571142  0 6.104208416833666  0 6  C 0 5.895791583166332  0.040091638029782384 5.803607214428857  0.1202749140893471 5.7234468937875755  L 5.725085910652921 0.12024048096192397  C 5.805269186712486 0.04008016032064088  5.8974799541809855 0  6.001718213058419 0  C 6.105956471935854 0  6.198167239404353 0.04008016032064088  6.278350515463917 0.12024048096192397  L 6.8797250859106525 0.7214428857715425  Z " fill-rule="evenodd" />
    </mask>
  </defs>
  <g transform="matrix(1 0 0 1 -1811 -261 )">
    <path d="M 6.8797250859106525 0.7214428857715425  C 6.959908361970219 0.8016032064128242  7 0.893787575150299  7 0.9979959919839683  C 7 1.1022044088176348  6.959908361970219 1.1943887775551096  6.8797250859106525 1.2745490981963927  L 2.152920962199313 6  L 6.8797250859106525 10.725450901803608  C 6.959908361970219 10.80561122244489  7 10.897795591182364  7 11.002004008016032  C 7 11.1062124248497  6.959908361970219 11.198396793587174  6.8797250859106525 11.278557114228457  L 6.278350515463917 11.879759519038076  C 6.198167239404353 11.959919839679358  6.105956471935854 12  6.001718213058419 12  C 5.8974799541809855 12  5.805269186712486 11.959919839679358  5.725085910652921 11.879759519038076  L 0.1202749140893471 6.2765531062124245  C 0.040091638029782384 6.196392785571142  0 6.104208416833666  0 6  C 0 5.895791583166332  0.040091638029782384 5.803607214428857  0.1202749140893471 5.7234468937875755  L 5.725085910652921 0.12024048096192397  C 5.805269186712486 0.04008016032064088  5.8974799541809855 0  6.001718213058419 0  C 6.105956471935854 0  6.198167239404353 0.04008016032064088  6.278350515463917 0.12024048096192397  L 6.8797250859106525 0.7214428857715425  Z " fill-rule="nonzero" fill="rgba(0, 153, 204, 1)" stroke="none" transform="matrix(1 0 0 1 1811 261 )" class="fill" />
    <path d="M 6.8797250859106525 0.7214428857715425  C 6.959908361970219 0.8016032064128242  7 0.893787575150299  7 0.9979959919839683  C 7 1.1022044088176348  6.959908361970219 1.1943887775551096  6.8797250859106525 1.2745490981963927  L 2.152920962199313 6  L 6.8797250859106525 10.725450901803608  C 6.959908361970219 10.80561122244489  7 10.897795591182364  7 11.002004008016032  C 7 11.1062124248497  6.959908361970219 11.198396793587174  6.8797250859106525 11.278557114228457  L 6.278350515463917 11.879759519038076  C 6.198167239404353 11.959919839679358  6.105956471935854 12  6.001718213058419 12  C 5.8974799541809855 12  5.805269186712486 11.959919839679358  5.725085910652921 11.879759519038076  L 0.1202749140893471 6.2765531062124245  C 0.040091638029782384 6.196392785571142  0 6.104208416833666  0 6  C 0 5.895791583166332  0.040091638029782384 5.803607214428857  0.1202749140893471 5.7234468937875755  L 5.725085910652921 0.12024048096192397  C 5.805269186712486 0.04008016032064088  5.8974799541809855 0  6.001718213058419 0  C 6.105956471935854 0  6.198167239404353 0.04008016032064088  6.278350515463917 0.12024048096192397  L 6.8797250859106525 0.7214428857715425  Z " stroke-width="0" stroke-dasharray="0" stroke="rgba(255, 255, 255, 0)" fill="none" transform="matrix(1 0 0 1 1811 261 )" class="stroke" mask="url(#Clip251)" />
  </g>
</svg>