<?xml version="1.0" encoding="utf-8"?>
<svg version="1.1" xmlns:xlink="http://www.w3.org/1999/xlink" width="12px" height="12px" xmlns="http://www.w3.org/2000/svg">
  <defs>
    <pattern id="BGPattern" patternUnits="userSpaceOnUse" alignment="0 0" imageRepeat="None" />
    <mask fill="white" id="Clip252">
      <path d="M 2.0277227722772277 10.986138613861385  L 2.875247524752475 10.986138613861385  L 3.596039603960396 10.265346534653466  L 1.7346534653465344 8.403960396039604  L 1.0138613861386139 9.124752475247526  L 1.0138613861386139 9.972277227722772  L 2.0277227722772277 9.972277227722772  L 2.0277227722772277 10.986138613861385  Z M 6.9623762376237615 3.77029702970297  C 6.9993399339934 3.7333333333333334  7.017821782178219 3.688448844884488  7.017821782178219 3.635643564356436  C 7.017821782178219 3.5194719471947193  6.959735973597359 3.461386138613861  6.8435643564356425 3.461386138613861  C 6.790759075907591 3.461386138613861  6.745874587458747 3.4798679867986793  6.7089108910891095 3.5168316831683173  L 2.4158415841584158 7.809900990099011  C 2.378877887788779 7.8468646864686455  2.3603960396039603 7.89174917491749  2.3603960396039603 7.9445544554455445  C 2.3603960396039603 8.06072607260726  2.4184818481848187 8.118811881188119  2.5346534653465347 8.118811881188119  C 2.5874587458745877 8.118811881188119  2.6323432343234323 8.1003300330033  2.669306930693069 8.063366336633663  L 6.9623762376237615 3.77029702970297  Z M 0 8.704950495049506  L 6.590099009900991 2.1148514851485154  L 9.885148514851485 5.409900990099009  L 3.2950495049504953 12  L 0 12  L 0 8.704950495049506  Z M 11.706930693069307 2.154455445544554  C 11.902310231023103 2.3603960396039607  12 2.6006600660066006  12 2.875247524752475  C 12 3.155115511551155  11.902310231023103 3.3927392739273916  11.706930693069307 3.5881188118811886  L 10.39207920792079 4.902970297029703  L 7.097029702970297 1.6079207920792085  L 8.411881188118812 0.30099009900990037  C 8.601980198019803 0.10033003300329923  8.83960396039604 0  9.124752475247526 0  C 9.404620462046207 0  9.644884488448845 0.10033003300329923  9.845544554455445 0.30099009900990037  L 11.706930693069307 2.154455445544554  Z " fill-rule="evenodd" />
    </mask>
  </defs>
  <g transform="matrix(1 0 0 1 -2260 -2901 )">
    <path d="M 2.0277227722772277 10.986138613861385  L 2.875247524752475 10.986138613861385  L 3.596039603960396 10.265346534653466  L 1.7346534653465344 8.403960396039604  L 1.0138613861386139 9.124752475247526  L 1.0138613861386139 9.972277227722772  L 2.0277227722772277 9.972277227722772  L 2.0277227722772277 10.986138613861385  Z M 6.9623762376237615 3.77029702970297  C 6.9993399339934 3.7333333333333334  7.017821782178219 3.688448844884488  7.017821782178219 3.635643564356436  C 7.017821782178219 3.5194719471947193  6.959735973597359 3.461386138613861  6.8435643564356425 3.461386138613861  C 6.790759075907591 3.461386138613861  6.745874587458747 3.4798679867986793  6.7089108910891095 3.5168316831683173  L 2.4158415841584158 7.809900990099011  C 2.378877887788779 7.8468646864686455  2.3603960396039603 7.89174917491749  2.3603960396039603 7.9445544554455445  C 2.3603960396039603 8.06072607260726  2.4184818481848187 8.118811881188119  2.5346534653465347 8.118811881188119  C 2.5874587458745877 8.118811881188119  2.6323432343234323 8.1003300330033  2.669306930693069 8.063366336633663  L 6.9623762376237615 3.77029702970297  Z M 0 8.704950495049506  L 6.590099009900991 2.1148514851485154  L 9.885148514851485 5.409900990099009  L 3.2950495049504953 12  L 0 12  L 0 8.704950495049506  Z M 11.706930693069307 2.154455445544554  C 11.902310231023103 2.3603960396039607  12 2.6006600660066006  12 2.875247524752475  C 12 3.155115511551155  11.902310231023103 3.3927392739273916  11.706930693069307 3.5881188118811886  L 10.39207920792079 4.902970297029703  L 7.097029702970297 1.6079207920792085  L 8.411881188118812 0.30099009900990037  C 8.601980198019803 0.10033003300329923  8.83960396039604 0  9.124752475247526 0  C 9.404620462046207 0  9.644884488448845 0.10033003300329923  9.845544554455445 0.30099009900990037  L 11.706930693069307 2.154455445544554  Z " fill-rule="nonzero" fill="rgba(0, 0, 0, 1)" stroke="none" transform="matrix(1 0 0 1 2260 2901 )" class="fill" />
    <path d="M 2.0277227722772277 10.986138613861385  L 2.875247524752475 10.986138613861385  L 3.596039603960396 10.265346534653466  L 1.7346534653465344 8.403960396039604  L 1.0138613861386139 9.124752475247526  L 1.0138613861386139 9.972277227722772  L 2.0277227722772277 9.972277227722772  L 2.0277227722772277 10.986138613861385  Z " stroke-width="0" stroke-dasharray="0" stroke="rgba(255, 255, 255, 0)" fill="none" transform="matrix(1 0 0 1 2260 2901 )" class="stroke" mask="url(#Clip252)" />
    <path d="M 6.9623762376237615 3.77029702970297  C 6.9993399339934 3.7333333333333334  7.017821782178219 3.688448844884488  7.017821782178219 3.635643564356436  C 7.017821782178219 3.5194719471947193  6.959735973597359 3.461386138613861  6.8435643564356425 3.461386138613861  C 6.790759075907591 3.461386138613861  6.745874587458747 3.4798679867986793  6.7089108910891095 3.5168316831683173  L 2.4158415841584158 7.809900990099011  C 2.378877887788779 7.8468646864686455  2.3603960396039603 7.89174917491749  2.3603960396039603 7.9445544554455445  C 2.3603960396039603 8.06072607260726  2.4184818481848187 8.118811881188119  2.5346534653465347 8.118811881188119  C 2.5874587458745877 8.118811881188119  2.6323432343234323 8.1003300330033  2.669306930693069 8.063366336633663  L 6.9623762376237615 3.77029702970297  Z " stroke-width="0" stroke-dasharray="0" stroke="rgba(255, 255, 255, 0)" fill="none" transform="matrix(1 0 0 1 2260 2901 )" class="stroke" mask="url(#Clip252)" />
    <path d="M 0 8.704950495049506  L 6.590099009900991 2.1148514851485154  L 9.885148514851485 5.409900990099009  L 3.2950495049504953 12  L 0 12  L 0 8.704950495049506  Z " stroke-width="0" stroke-dasharray="0" stroke="rgba(255, 255, 255, 0)" fill="none" transform="matrix(1 0 0 1 2260 2901 )" class="stroke" mask="url(#Clip252)" />
    <path d="M 11.706930693069307 2.154455445544554  C 11.902310231023103 2.3603960396039607  12 2.6006600660066006  12 2.875247524752475  C 12 3.155115511551155  11.902310231023103 3.3927392739273916  11.706930693069307 3.5881188118811886  L 10.39207920792079 4.902970297029703  L 7.097029702970297 1.6079207920792085  L 8.411881188118812 0.30099009900990037  C 8.601980198019803 0.10033003300329923  8.83960396039604 0  9.124752475247526 0  C 9.404620462046207 0  9.644884488448845 0.10033003300329923  9.845544554455445 0.30099009900990037  L 11.706930693069307 2.154455445544554  Z " stroke-width="0" stroke-dasharray="0" stroke="rgba(255, 255, 255, 0)" fill="none" transform="matrix(1 0 0 1 2260 2901 )" class="stroke" mask="url(#Clip252)" />
  </g>
</svg>