<?xml version="1.0" encoding="utf-8"?>
<svg version="1.1" xmlns:xlink="http://www.w3.org/1999/xlink" width="11px" height="12px" xmlns="http://www.w3.org/2000/svg">
  <defs>
    <pattern id="BGPattern" patternUnits="userSpaceOnUse" alignment="0 0" imageRepeat="None" />
    <mask fill="white" id="Clip253">
      <path d="M 3.9296875 9.9296875  C 3.9765625 9.8828125  4 9.822916666666666  4 9.75  L 4 4.25  C 4 4.177083333333334  3.9765625 4.1171875  3.9296875 4.0703125  C 3.8828125 4.0234375  3.8229166666666674 4  3.7499999999999996 4  L 3.25 4  C 3.177083333333334 4  3.117187500000001 4.0234375  3.0703125 4.0703125  C 3.0234375 4.1171875  3 4.177083333333334  3 4.25  L 3 9.75  C 3 9.822916666666666  3.0234375 9.8828125  3.0703125 9.9296875  C 3.117187500000001 9.9765625  3.177083333333334 10  3.25 10  L 3.7499999999999996 10  C 3.8229166666666674 10  3.8828125 9.9765625  3.9296875 9.9296875  Z M 5.9296875 9.9296875  C 5.9765625 9.8828125  6 9.822916666666666  6 9.75  L 6 4.25  C 6 4.177083333333334  5.9765625 4.1171875  5.9296875 4.0703125  C 5.8828125 4.0234375  5.822916666666667 4  5.75 4  L 5.25 4  C 5.177083333333334 4  5.1171875 4.0234375  5.0703125 4.0703125  C 5.0234375 4.1171875  5 4.177083333333334  5 4.25  L 5 9.75  C 5 9.822916666666666  5.0234375 9.8828125  5.0703125 9.9296875  C 5.1171875 9.9765625  5.177083333333334 10  5.25 10  L 5.75 10  C 5.822916666666667 10  5.8828125 9.9765625  5.9296875 9.9296875  Z M 7.929687499999999 9.9296875  C 7.9765625 9.8828125  8 9.822916666666666  8 9.75  L 8 4.25  C 8 4.177083333333334  7.9765625 4.1171875  7.929687499999999 4.0703125  C 7.882812500000001 4.0234375  7.822916666666667 4  7.75 4  L 7.25 4  C 7.177083333333333 4  7.1171875 4.0234375  7.070312499999999 4.0703125  C 7.023437500000001 4.1171875  7 4.177083333333334  7 4.25  L 7 9.75  C 7 9.822916666666666  7.023437500000001 9.8828125  7.070312499999999 9.9296875  C 7.1171875 9.9765625  7.177083333333333 10  7.25 10  L 7.75 10  C 7.822916666666667 10  7.882812500000001 9.9765625  7.929687499999999 9.9296875  Z M 4.1328125 1.0859374999999996  L 3.7499999999999996 1.9999999999999996  L 7.25 1.9999999999999996  L 6.875 1.0859374999999996  C 6.838541666666668 1.0390624999999996  6.794270833333334 1.010416666666666  6.7421875 1.0000000000000004  L 4.265625 1.0000000000000004  C 4.213541666666667 1.010416666666666  4.169270833333334 1.0390624999999996  4.1328125 1.0859374999999996  Z M 10.9296875 2.0703124999999996  C 10.9765625 2.1171874999999996  11 2.1770833333333326  11 2.25  L 11 2.7499999999999996  C 11 2.8229166666666656  10.9765625 2.8828125  10.9296875 2.9296875  C 10.8828125 2.9765625  10.822916666666668 3  10.75 3  L 10 3  L 10 10.40625  C 10 10.838541666666666  9.877604166666668 11.212239583333334  9.6328125 11.52734375  C 9.388020833333334 11.842447916666666  9.09375 12  8.75 12  L 2.25 12  C 1.9062500000000002 12  1.611979166666667 11.84765625  1.3671875 11.54296875  C 1.1223958333333335 11.23828125  1 10.869791666666666  1 10.4375  L 1 3  L 0.25 3  C 0.17708333333333331 3  0.11718750000000001 2.9765625  0.0703125 2.9296875  C 0.0234375 2.8828125  0 2.8229166666666656  0 2.7499999999999996  L 0 2.25  C 0 2.1770833333333326  0.0234375 2.1171874999999996  0.0703125 2.0703124999999996  C 0.11718750000000001 2.0234374999999996  0.17708333333333331 1.9999999999999996  0.25 1.9999999999999996  L 2.6640625 1.9999999999999996  L 3.2109375000000004 0.6953125000000004  C 3.289062500000001 0.5026041666666656  3.4296875000000004 0.33854166666666563  3.6328125 0.20312500000000044  C 3.8359375000000004 0.0677083333333326  4.041666666666667 0  4.25 0  L 6.75 0  C 6.958333333333335 0  7.1640625 0.0677083333333326  7.367187500000001 0.20312500000000044  C 7.5703125 0.33854166666666563  7.710937500000001 0.5026041666666656  7.7890625 0.6953125000000004  L 8.3359375 1.9999999999999996  L 10.75 1.9999999999999996  C 10.822916666666668 1.9999999999999996  10.8828125 2.0234374999999996  10.9296875 2.0703124999999996  Z " fill-rule="evenodd" />
    </mask>
  </defs>
  <g transform="matrix(1 0 0 1 -2325 -2901 )">
    <path d="M 3.9296875 9.9296875  C 3.9765625 9.8828125  4 9.822916666666666  4 9.75  L 4 4.25  C 4 4.177083333333334  3.9765625 4.1171875  3.9296875 4.0703125  C 3.8828125 4.0234375  3.8229166666666674 4  3.7499999999999996 4  L 3.25 4  C 3.177083333333334 4  3.117187500000001 4.0234375  3.0703125 4.0703125  C 3.0234375 4.1171875  3 4.177083333333334  3 4.25  L 3 9.75  C 3 9.822916666666666  3.0234375 9.8828125  3.0703125 9.9296875  C 3.117187500000001 9.9765625  3.177083333333334 10  3.25 10  L 3.7499999999999996 10  C 3.8229166666666674 10  3.8828125 9.9765625  3.9296875 9.9296875  Z M 5.9296875 9.9296875  C 5.9765625 9.8828125  6 9.822916666666666  6 9.75  L 6 4.25  C 6 4.177083333333334  5.9765625 4.1171875  5.9296875 4.0703125  C 5.8828125 4.0234375  5.822916666666667 4  5.75 4  L 5.25 4  C 5.177083333333334 4  5.1171875 4.0234375  5.0703125 4.0703125  C 5.0234375 4.1171875  5 4.177083333333334  5 4.25  L 5 9.75  C 5 9.822916666666666  5.0234375 9.8828125  5.0703125 9.9296875  C 5.1171875 9.9765625  5.177083333333334 10  5.25 10  L 5.75 10  C 5.822916666666667 10  5.8828125 9.9765625  5.9296875 9.9296875  Z M 7.929687499999999 9.9296875  C 7.9765625 9.8828125  8 9.822916666666666  8 9.75  L 8 4.25  C 8 4.177083333333334  7.9765625 4.1171875  7.929687499999999 4.0703125  C 7.882812500000001 4.0234375  7.822916666666667 4  7.75 4  L 7.25 4  C 7.177083333333333 4  7.1171875 4.0234375  7.070312499999999 4.0703125  C 7.023437500000001 4.1171875  7 4.177083333333334  7 4.25  L 7 9.75  C 7 9.822916666666666  7.023437500000001 9.8828125  7.070312499999999 9.9296875  C 7.1171875 9.9765625  7.177083333333333 10  7.25 10  L 7.75 10  C 7.822916666666667 10  7.882812500000001 9.9765625  7.929687499999999 9.9296875  Z M 4.1328125 1.0859374999999996  L 3.7499999999999996 1.9999999999999996  L 7.25 1.9999999999999996  L 6.875 1.0859374999999996  C 6.838541666666668 1.0390624999999996  6.794270833333334 1.010416666666666  6.7421875 1.0000000000000004  L 4.265625 1.0000000000000004  C 4.213541666666667 1.010416666666666  4.169270833333334 1.0390624999999996  4.1328125 1.0859374999999996  Z M 10.9296875 2.0703124999999996  C 10.9765625 2.1171874999999996  11 2.1770833333333326  11 2.25  L 11 2.7499999999999996  C 11 2.8229166666666656  10.9765625 2.8828125  10.9296875 2.9296875  C 10.8828125 2.9765625  10.822916666666668 3  10.75 3  L 10 3  L 10 10.40625  C 10 10.838541666666666  9.877604166666668 11.212239583333334  9.6328125 11.52734375  C 9.388020833333334 11.842447916666666  9.09375 12  8.75 12  L 2.25 12  C 1.9062500000000002 12  1.611979166666667 11.84765625  1.3671875 11.54296875  C 1.1223958333333335 11.23828125  1 10.869791666666666  1 10.4375  L 1 3  L 0.25 3  C 0.17708333333333331 3  0.11718750000000001 2.9765625  0.0703125 2.9296875  C 0.0234375 2.8828125  0 2.8229166666666656  0 2.7499999999999996  L 0 2.25  C 0 2.1770833333333326  0.0234375 2.1171874999999996  0.0703125 2.0703124999999996  C 0.11718750000000001 2.0234374999999996  0.17708333333333331 1.9999999999999996  0.25 1.9999999999999996  L 2.6640625 1.9999999999999996  L 3.2109375000000004 0.6953125000000004  C 3.289062500000001 0.5026041666666656  3.4296875000000004 0.33854166666666563  3.6328125 0.20312500000000044  C 3.8359375000000004 0.0677083333333326  4.041666666666667 0  4.25 0  L 6.75 0  C 6.958333333333335 0  7.1640625 0.0677083333333326  7.367187500000001 0.20312500000000044  C 7.5703125 0.33854166666666563  7.710937500000001 0.5026041666666656  7.7890625 0.6953125000000004  L 8.3359375 1.9999999999999996  L 10.75 1.9999999999999996  C 10.822916666666668 1.9999999999999996  10.8828125 2.0234374999999996  10.9296875 2.0703124999999996  Z " fill-rule="nonzero" fill="rgba(0, 0, 0, 1)" stroke="none" transform="matrix(1 0 0 1 2325 2901 )" class="fill" />
    <path d="M 3.9296875 9.9296875  C 3.9765625 9.8828125  4 9.822916666666666  4 9.75  L 4 4.25  C 4 4.177083333333334  3.9765625 4.1171875  3.9296875 4.0703125  C 3.8828125 4.0234375  3.8229166666666674 4  3.7499999999999996 4  L 3.25 4  C 3.177083333333334 4  3.117187500000001 4.0234375  3.0703125 4.0703125  C 3.0234375 4.1171875  3 4.177083333333334  3 4.25  L 3 9.75  C 3 9.822916666666666  3.0234375 9.8828125  3.0703125 9.9296875  C 3.117187500000001 9.9765625  3.177083333333334 10  3.25 10  L 3.7499999999999996 10  C 3.8229166666666674 10  3.8828125 9.9765625  3.9296875 9.9296875  Z " stroke-width="0" stroke-dasharray="0" stroke="rgba(255, 255, 255, 0)" fill="none" transform="matrix(1 0 0 1 2325 2901 )" class="stroke" mask="url(#Clip253)" />
    <path d="M 5.9296875 9.9296875  C 5.9765625 9.8828125  6 9.822916666666666  6 9.75  L 6 4.25  C 6 4.177083333333334  5.9765625 4.1171875  5.9296875 4.0703125  C 5.8828125 4.0234375  5.822916666666667 4  5.75 4  L 5.25 4  C 5.177083333333334 4  5.1171875 4.0234375  5.0703125 4.0703125  C 5.0234375 4.1171875  5 4.177083333333334  5 4.25  L 5 9.75  C 5 9.822916666666666  5.0234375 9.8828125  5.0703125 9.9296875  C 5.1171875 9.9765625  5.177083333333334 10  5.25 10  L 5.75 10  C 5.822916666666667 10  5.8828125 9.9765625  5.9296875 9.9296875  Z " stroke-width="0" stroke-dasharray="0" stroke="rgba(255, 255, 255, 0)" fill="none" transform="matrix(1 0 0 1 2325 2901 )" class="stroke" mask="url(#Clip253)" />
    <path d="M 7.929687499999999 9.9296875  C 7.9765625 9.8828125  8 9.822916666666666  8 9.75  L 8 4.25  C 8 4.177083333333334  7.9765625 4.1171875  7.929687499999999 4.0703125  C 7.882812500000001 4.0234375  7.822916666666667 4  7.75 4  L 7.25 4  C 7.177083333333333 4  7.1171875 4.0234375  7.070312499999999 4.0703125  C 7.023437500000001 4.1171875  7 4.177083333333334  7 4.25  L 7 9.75  C 7 9.822916666666666  7.023437500000001 9.8828125  7.070312499999999 9.9296875  C 7.1171875 9.9765625  7.177083333333333 10  7.25 10  L 7.75 10  C 7.822916666666667 10  7.882812500000001 9.9765625  7.929687499999999 9.9296875  Z " stroke-width="0" stroke-dasharray="0" stroke="rgba(255, 255, 255, 0)" fill="none" transform="matrix(1 0 0 1 2325 2901 )" class="stroke" mask="url(#Clip253)" />
    <path d="M 4.1328125 1.0859374999999996  L 3.7499999999999996 1.9999999999999996  L 7.25 1.9999999999999996  L 6.875 1.0859374999999996  C 6.838541666666668 1.0390624999999996  6.794270833333334 1.010416666666666  6.7421875 1.0000000000000004  L 4.265625 1.0000000000000004  C 4.213541666666667 1.010416666666666  4.169270833333334 1.0390624999999996  4.1328125 1.0859374999999996  Z " stroke-width="0" stroke-dasharray="0" stroke="rgba(255, 255, 255, 0)" fill="none" transform="matrix(1 0 0 1 2325 2901 )" class="stroke" mask="url(#Clip253)" />
    <path d="M 10.9296875 2.0703124999999996  C 10.9765625 2.1171874999999996  11 2.1770833333333326  11 2.25  L 11 2.7499999999999996  C 11 2.8229166666666656  10.9765625 2.8828125  10.9296875 2.9296875  C 10.8828125 2.9765625  10.822916666666668 3  10.75 3  L 10 3  L 10 10.40625  C 10 10.838541666666666  9.877604166666668 11.212239583333334  9.6328125 11.52734375  C 9.388020833333334 11.842447916666666  9.09375 12  8.75 12  L 2.25 12  C 1.9062500000000002 12  1.611979166666667 11.84765625  1.3671875 11.54296875  C 1.1223958333333335 11.23828125  1 10.869791666666666  1 10.4375  L 1 3  L 0.25 3  C 0.17708333333333331 3  0.11718750000000001 2.9765625  0.0703125 2.9296875  C 0.0234375 2.8828125  0 2.8229166666666656  0 2.7499999999999996  L 0 2.25  C 0 2.1770833333333326  0.0234375 2.1171874999999996  0.0703125 2.0703124999999996  C 0.11718750000000001 2.0234374999999996  0.17708333333333331 1.9999999999999996  0.25 1.9999999999999996  L 2.6640625 1.9999999999999996  L 3.2109375000000004 0.6953125000000004  C 3.289062500000001 0.5026041666666656  3.4296875000000004 0.33854166666666563  3.6328125 0.20312500000000044  C 3.8359375000000004 0.0677083333333326  4.041666666666667 0  4.25 0  L 6.75 0  C 6.958333333333335 0  7.1640625 0.0677083333333326  7.367187500000001 0.20312500000000044  C 7.5703125 0.33854166666666563  7.710937500000001 0.5026041666666656  7.7890625 0.6953125000000004  L 8.3359375 1.9999999999999996  L 10.75 1.9999999999999996  C 10.822916666666668 1.9999999999999996  10.8828125 2.0234374999999996  10.9296875 2.0703124999999996  Z " stroke-width="0" stroke-dasharray="0" stroke="rgba(255, 255, 255, 0)" fill="none" transform="matrix(1 0 0 1 2325 2901 )" class="stroke" mask="url(#Clip253)" />
  </g>
</svg>