<?xml version="1.0" encoding="utf-8"?>
<svg version="1.1" xmlns:xlink="http://www.w3.org/1999/xlink" width="32px" height="20px" xmlns="http://www.w3.org/2000/svg">
  <defs>
    <pattern id="BGPattern" patternUnits="userSpaceOnUse" alignment="0 0" imageRepeat="None" />
    <mask fill="white" id="Clip254">
      <path d="M 17.3671875 13.1015625  C 17.7890625 12.1171875  18 11.083333333333332  18 10  C 18 8.916666666666666  17.7890625 7.8828125  17.3671875 6.898437500000001  C 16.9453125 5.914062499999999  16.375 5.062499999999998  15.65625 4.34375  C 14.937500000000002 3.6250000000000004  14.085937500000002 3.0546874999999996  13.1015625 2.632812499999999  C 12.1171875 2.210937500000001  11.083333333333334 1.9999999999999996  10 1.9999999999999996  C 8.916666666666668 1.9999999999999996  7.8828125 2.210937500000001  6.8984375 2.632812499999999  C 5.9140625 3.0546874999999996  5.0625 3.6250000000000004  4.34375 4.34375  C 3.625 5.062499999999998  3.0546875 5.914062499999999  2.6328125 6.898437500000001  C 2.2109375 7.8828125  2 8.916666666666666  2 10  C 2 11.083333333333332  2.2109375 12.1171875  2.6328125 13.1015625  C 3.0546875 14.0859375  3.625 14.9375  4.34375 15.65625  C 5.0625 16.375  5.9140625 16.9453125  6.8984375 17.3671875  C 7.8828125 17.7890625  8.916666666666668 18  10 18  C 11.083333333333334 18  12.1171875 17.7890625  13.1015625 17.3671875  C 14.085937500000002 16.9453125  14.937500000000002 16.375  15.65625 15.65625  C 16.375 14.9375  16.9453125 14.0859375  17.3671875 13.1015625  Z M 29.3671875 13.1015625  C 29.789062500000004 12.1171875  30.000000000000004 11.083333333333332  30 10  C 30.000000000000004 8.916666666666666  29.789062500000004 7.8828125  29.3671875 6.898437500000001  C 28.945312500000004 5.914062499999999  28.375000000000004 5.062499999999998  27.65625 4.34375  C 26.937500000000004 3.6250000000000004  26.085937500000004 3.0546874999999996  25.1015625 2.632812499999999  C 24.1171875 2.210937500000001  23.083333333333336 1.9999999999999996  22 1.9999999999999996  L 15.96875 1.9999999999999996  C 17.208333333333336 2.9374999999999996  18.190104166666668 4.104166666666664  18.9140625 5.5  C 19.638020833333336 6.895833333333332  20 8.395833333333332  20 10  C 20 11.604166666666666  19.638020833333336 13.104166666666664  18.9140625 14.5  C 18.190104166666668 15.895833333333332  17.208333333333336 17.0625  15.96875 18  L 22 18  C 23.083333333333336 18  24.1171875 17.7890625  25.1015625 17.3671875  C 26.085937500000004 16.9453125  26.937500000000004 16.375  27.65625 15.65625  C 28.375000000000004 14.9375  28.945312500000004 14.0859375  29.3671875 13.1015625  Z M 31.203125 6.117187500000001  C 31.734375 7.3515625  32 8.645833333333332  32 10  C 32 11.354166666666664  31.734375 12.6484375  31.203125 13.8828125  C 30.671875 15.1171875  29.9609375 16.1796875  29.0703125 17.0703125  C 28.1796875 17.9609375  27.1171875 18.671875  25.8828125 19.203125  C 24.6484375 19.734375  23.354166666666668 20  22 20  L 10 20  C 8.645833333333334 20  7.351562500000001 19.734375  6.1171875 19.203125  C 4.8828125 18.671875  3.8203125000000004 17.9609375  2.9296875 17.0703125  C 2.0390625 16.1796875  1.3281250000000002 15.1171875  0.796875 13.8828125  C 0.265625 12.6484375  0 11.354166666666664  0 10  C 0 8.645833333333332  0.265625 7.3515625  0.796875 6.117187500000001  C 1.3281250000000002 4.8828125  2.0390625 3.8203125000000004  2.9296875 2.9296875  C 3.8203125000000004 2.0390624999999996  4.8828125 1.328125  6.1171875 0.7968749999999991  C 7.351562500000001 0.26562500000000044  8.645833333333334 0  10 0  L 22 0  C 23.354166666666668 0  24.6484375 0.26562500000000044  25.8828125 0.7968749999999991  C 27.1171875 1.328125  28.1796875 2.0390624999999996  29.0703125 2.9296875  C 29.9609375 3.8203125000000004  30.671875 4.8828125  31.203125 6.117187500000001  Z " fill-rule="evenodd" />
    </mask>
  </defs>
  <g transform="matrix(1 0 0 1 -2336 -2737 )">
    <path d="M 17.3671875 13.1015625  C 17.7890625 12.1171875  18 11.083333333333332  18 10  C 18 8.916666666666666  17.7890625 7.8828125  17.3671875 6.898437500000001  C 16.9453125 5.914062499999999  16.375 5.062499999999998  15.65625 4.34375  C 14.937500000000002 3.6250000000000004  14.085937500000002 3.0546874999999996  13.1015625 2.632812499999999  C 12.1171875 2.210937500000001  11.083333333333334 1.9999999999999996  10 1.9999999999999996  C 8.916666666666668 1.9999999999999996  7.8828125 2.210937500000001  6.8984375 2.632812499999999  C 5.9140625 3.0546874999999996  5.0625 3.6250000000000004  4.34375 4.34375  C 3.625 5.062499999999998  3.0546875 5.914062499999999  2.6328125 6.898437500000001  C 2.2109375 7.8828125  2 8.916666666666666  2 10  C 2 11.083333333333332  2.2109375 12.1171875  2.6328125 13.1015625  C 3.0546875 14.0859375  3.625 14.9375  4.34375 15.65625  C 5.0625 16.375  5.9140625 16.9453125  6.8984375 17.3671875  C 7.8828125 17.7890625  8.916666666666668 18  10 18  C 11.083333333333334 18  12.1171875 17.7890625  13.1015625 17.3671875  C 14.085937500000002 16.9453125  14.937500000000002 16.375  15.65625 15.65625  C 16.375 14.9375  16.9453125 14.0859375  17.3671875 13.1015625  Z M 29.3671875 13.1015625  C 29.789062500000004 12.1171875  30.000000000000004 11.083333333333332  30 10  C 30.000000000000004 8.916666666666666  29.789062500000004 7.8828125  29.3671875 6.898437500000001  C 28.945312500000004 5.914062499999999  28.375000000000004 5.062499999999998  27.65625 4.34375  C 26.937500000000004 3.6250000000000004  26.085937500000004 3.0546874999999996  25.1015625 2.632812499999999  C 24.1171875 2.210937500000001  23.083333333333336 1.9999999999999996  22 1.9999999999999996  L 15.96875 1.9999999999999996  C 17.208333333333336 2.9374999999999996  18.190104166666668 4.104166666666664  18.9140625 5.5  C 19.638020833333336 6.895833333333332  20 8.395833333333332  20 10  C 20 11.604166666666666  19.638020833333336 13.104166666666664  18.9140625 14.5  C 18.190104166666668 15.895833333333332  17.208333333333336 17.0625  15.96875 18  L 22 18  C 23.083333333333336 18  24.1171875 17.7890625  25.1015625 17.3671875  C 26.085937500000004 16.9453125  26.937500000000004 16.375  27.65625 15.65625  C 28.375000000000004 14.9375  28.945312500000004 14.0859375  29.3671875 13.1015625  Z M 31.203125 6.117187500000001  C 31.734375 7.3515625  32 8.645833333333332  32 10  C 32 11.354166666666664  31.734375 12.6484375  31.203125 13.8828125  C 30.671875 15.1171875  29.9609375 16.1796875  29.0703125 17.0703125  C 28.1796875 17.9609375  27.1171875 18.671875  25.8828125 19.203125  C 24.6484375 19.734375  23.354166666666668 20  22 20  L 10 20  C 8.645833333333334 20  7.351562500000001 19.734375  6.1171875 19.203125  C 4.8828125 18.671875  3.8203125000000004 17.9609375  2.9296875 17.0703125  C 2.0390625 16.1796875  1.3281250000000002 15.1171875  0.796875 13.8828125  C 0.265625 12.6484375  0 11.354166666666664  0 10  C 0 8.645833333333332  0.265625 7.3515625  0.796875 6.117187500000001  C 1.3281250000000002 4.8828125  2.0390625 3.8203125000000004  2.9296875 2.9296875  C 3.8203125000000004 2.0390624999999996  4.8828125 1.328125  6.1171875 0.7968749999999991  C 7.351562500000001 0.26562500000000044  8.645833333333334 0  10 0  L 22 0  C 23.354166666666668 0  24.6484375 0.26562500000000044  25.8828125 0.7968749999999991  C 27.1171875 1.328125  28.1796875 2.0390624999999996  29.0703125 2.9296875  C 29.9609375 3.8203125000000004  30.671875 4.8828125  31.203125 6.117187500000001  Z " fill-rule="nonzero" fill="rgba(0, 0, 0, 1)" stroke="none" transform="matrix(1 0 0 1 2336 2737 )" class="fill" />
    <path d="M 17.3671875 13.1015625  C 17.7890625 12.1171875  18 11.083333333333332  18 10  C 18 8.916666666666666  17.7890625 7.8828125  17.3671875 6.898437500000001  C 16.9453125 5.914062499999999  16.375 5.062499999999998  15.65625 4.34375  C 14.937500000000002 3.6250000000000004  14.085937500000002 3.0546874999999996  13.1015625 2.632812499999999  C 12.1171875 2.210937500000001  11.083333333333334 1.9999999999999996  10 1.9999999999999996  C 8.916666666666668 1.9999999999999996  7.8828125 2.210937500000001  6.8984375 2.632812499999999  C 5.9140625 3.0546874999999996  5.0625 3.6250000000000004  4.34375 4.34375  C 3.625 5.062499999999998  3.0546875 5.914062499999999  2.6328125 6.898437500000001  C 2.2109375 7.8828125  2 8.916666666666666  2 10  C 2 11.083333333333332  2.2109375 12.1171875  2.6328125 13.1015625  C 3.0546875 14.0859375  3.625 14.9375  4.34375 15.65625  C 5.0625 16.375  5.9140625 16.9453125  6.8984375 17.3671875  C 7.8828125 17.7890625  8.916666666666668 18  10 18  C 11.083333333333334 18  12.1171875 17.7890625  13.1015625 17.3671875  C 14.085937500000002 16.9453125  14.937500000000002 16.375  15.65625 15.65625  C 16.375 14.9375  16.9453125 14.0859375  17.3671875 13.1015625  Z " stroke-width="0" stroke-dasharray="0" stroke="rgba(255, 255, 255, 0)" fill="none" transform="matrix(1 0 0 1 2336 2737 )" class="stroke" mask="url(#Clip254)" />
    <path d="M 29.3671875 13.1015625  C 29.789062500000004 12.1171875  30.000000000000004 11.083333333333332  30 10  C 30.000000000000004 8.916666666666666  29.789062500000004 7.8828125  29.3671875 6.898437500000001  C 28.945312500000004 5.914062499999999  28.375000000000004 5.062499999999998  27.65625 4.34375  C 26.937500000000004 3.6250000000000004  26.085937500000004 3.0546874999999996  25.1015625 2.632812499999999  C 24.1171875 2.210937500000001  23.083333333333336 1.9999999999999996  22 1.9999999999999996  L 15.96875 1.9999999999999996  C 17.208333333333336 2.9374999999999996  18.190104166666668 4.104166666666664  18.9140625 5.5  C 19.638020833333336 6.895833333333332  20 8.395833333333332  20 10  C 20 11.604166666666666  19.638020833333336 13.104166666666664  18.9140625 14.5  C 18.190104166666668 15.895833333333332  17.208333333333336 17.0625  15.96875 18  L 22 18  C 23.083333333333336 18  24.1171875 17.7890625  25.1015625 17.3671875  C 26.085937500000004 16.9453125  26.937500000000004 16.375  27.65625 15.65625  C 28.375000000000004 14.9375  28.945312500000004 14.0859375  29.3671875 13.1015625  Z " stroke-width="0" stroke-dasharray="0" stroke="rgba(255, 255, 255, 0)" fill="none" transform="matrix(1 0 0 1 2336 2737 )" class="stroke" mask="url(#Clip254)" />
    <path d="M 31.203125 6.117187500000001  C 31.734375 7.3515625  32 8.645833333333332  32 10  C 32 11.354166666666664  31.734375 12.6484375  31.203125 13.8828125  C 30.671875 15.1171875  29.9609375 16.1796875  29.0703125 17.0703125  C 28.1796875 17.9609375  27.1171875 18.671875  25.8828125 19.203125  C 24.6484375 19.734375  23.354166666666668 20  22 20  L 10 20  C 8.645833333333334 20  7.351562500000001 19.734375  6.1171875 19.203125  C 4.8828125 18.671875  3.8203125000000004 17.9609375  2.9296875 17.0703125  C 2.0390625 16.1796875  1.3281250000000002 15.1171875  0.796875 13.8828125  C 0.265625 12.6484375  0 11.354166666666664  0 10  C 0 8.645833333333332  0.265625 7.3515625  0.796875 6.117187500000001  C 1.3281250000000002 4.8828125  2.0390625 3.8203125000000004  2.9296875 2.9296875  C 3.8203125000000004 2.0390624999999996  4.8828125 1.328125  6.1171875 0.7968749999999991  C 7.351562500000001 0.26562500000000044  8.645833333333334 0  10 0  L 22 0  C 23.354166666666668 0  24.6484375 0.26562500000000044  25.8828125 0.7968749999999991  C 27.1171875 1.328125  28.1796875 2.0390624999999996  29.0703125 2.9296875  C 29.9609375 3.8203125000000004  30.671875 4.8828125  31.203125 6.117187500000001  Z " stroke-width="0" stroke-dasharray="0" stroke="rgba(255, 255, 255, 0)" fill="none" transform="matrix(1 0 0 1 2336 2737 )" class="stroke" mask="url(#Clip254)" />
  </g>
</svg>