<?xml version="1.0" encoding="utf-8"?>
<svg version="1.1" xmlns:xlink="http://www.w3.org/1999/xlink" width="12px" height="12px" xmlns="http://www.w3.org/2000/svg">
  <defs>
    <pattern id="BGPattern" patternUnits="userSpaceOnUse" alignment="0 0" imageRepeat="None" />
    <mask fill="white" id="Clip256">
      <path d="M 3 8  L 3 11  L 9 11  L 9 8  L 3 8  Z M 10 7.749999999999999  L 10 11  L 11 11  L 11 4  C 11 3.9270833333333317  10.973958333333334 3.8268229166666665  10.921875 3.6992187499999996  C 10.869791666666668 3.5716145833333326  10.817708333333334 3.4817708333333317  10.765625 3.4296874999999996  L 8.5703125 1.2343750000000004  C 8.518229166666668 1.1822916666666656  8.4296875 1.1302083333333321  8.3046875 1.078125  C 8.1796875 1.0260416666666665  8.078125 1.0000000000000004  8 1.0000000000000004  L 8 4.25  C 8 4.458333333333334  7.927083333333334 4.635416666666666  7.78125 4.78125  C 7.635416666666666 4.927083333333334  7.458333333333334 5  7.25 5  L 2.75 5  C 2.541666666666667 5  2.3645833333333335 4.927083333333334  2.21875 4.78125  C 2.072916666666667 4.635416666666666  2 4.458333333333334  2 4.25  L 2 1.0000000000000004  L 1 1.0000000000000004  L 1 11  L 2 11  L 2 7.749999999999999  C 2 7.541666666666665  2.072916666666667 7.364583333333332  2.21875 7.21875  C 2.3645833333333335 7.072916666666665  2.541666666666667 6.999999999999999  2.75 6.999999999999999  L 9.25 6.999999999999999  C 9.458333333333334 6.999999999999999  9.635416666666668 7.072916666666665  9.78125 7.21875  C 9.927083333333334 7.364583333333332  10 7.541666666666665  10 7.749999999999999  Z M 6.92578125 3.92578125  C 6.975260416666668 3.8763020833333326  7 3.8177083333333326  7 3.75  L 7 1.2499999999999996  C 7 1.1822916666666656  6.975260416666668 1.1236979166666656  6.92578125 1.0742187499999996  C 6.876302083333334 1.0247395833333321  6.817708333333334 1.0000000000000004  6.75 1.0000000000000004  L 5.25 1.0000000000000004  C 5.182291666666667 1.0000000000000004  5.123697916666667 1.0247395833333321  5.07421875 1.0742187499999996  C 5.024739583333334 1.1236979166666656  5 1.1822916666666656  5 1.2499999999999996  L 5 3.75  C 5 3.8177083333333326  5.024739583333334 3.8763020833333326  5.07421875 3.92578125  C 5.123697916666667 3.975260416666666  5.182291666666667 4  5.25 4  L 6.75 4  C 6.817708333333334 4  6.876302083333334 3.975260416666666  6.92578125 3.92578125  Z M 11.84375 3.3124999999999996  C 11.947916666666666 3.5625  12 3.7916666666666665  12 4  L 12 11.25  C 12 11.458333333333334  11.927083333333332 11.635416666666666  11.78125 11.78125  C 11.635416666666668 11.927083333333334  11.458333333333334 12  11.25 12  L 0.75 12  C 0.5416666666666667 12  0.36458333333333337 11.927083333333334  0.21875 11.78125  C 0.07291666666666666 11.635416666666666  0 11.458333333333334  0 11.25  L 0 0.75  C 0 0.5416666666666661  0.07291666666666666 0.3645833333333317  0.21875 0.21874999999999956  C 0.36458333333333337 0.07291666666666607  0.5416666666666667 0  0.75 0  L 8 0  C 8.208333333333334 0  8.4375 0.05208333333333215  8.6875 0.15625000000000044  C 8.9375 0.2604166666666661  9.135416666666668 0.38541666666666563  9.28125 0.5312500000000004  L 11.46875 2.71875  C 11.614583333333334 2.864583333333332  11.739583333333334 3.0625000000000004  11.84375 3.3124999999999996  Z " fill-rule="evenodd" />
    </mask>
  </defs>
  <g transform="matrix(1 0 0 1 -2324 -2682 )">
    <path d="M 3 8  L 3 11  L 9 11  L 9 8  L 3 8  Z M 10 7.749999999999999  L 10 11  L 11 11  L 11 4  C 11 3.9270833333333317  10.973958333333334 3.8268229166666665  10.921875 3.6992187499999996  C 10.869791666666668 3.5716145833333326  10.817708333333334 3.4817708333333317  10.765625 3.4296874999999996  L 8.5703125 1.2343750000000004  C 8.518229166666668 1.1822916666666656  8.4296875 1.1302083333333321  8.3046875 1.078125  C 8.1796875 1.0260416666666665  8.078125 1.0000000000000004  8 1.0000000000000004  L 8 4.25  C 8 4.458333333333334  7.927083333333334 4.635416666666666  7.78125 4.78125  C 7.635416666666666 4.927083333333334  7.458333333333334 5  7.25 5  L 2.75 5  C 2.541666666666667 5  2.3645833333333335 4.927083333333334  2.21875 4.78125  C 2.072916666666667 4.635416666666666  2 4.458333333333334  2 4.25  L 2 1.0000000000000004  L 1 1.0000000000000004  L 1 11  L 2 11  L 2 7.749999999999999  C 2 7.541666666666665  2.072916666666667 7.364583333333332  2.21875 7.21875  C 2.3645833333333335 7.072916666666665  2.541666666666667 6.999999999999999  2.75 6.999999999999999  L 9.25 6.999999999999999  C 9.458333333333334 6.999999999999999  9.635416666666668 7.072916666666665  9.78125 7.21875  C 9.927083333333334 7.364583333333332  10 7.541666666666665  10 7.749999999999999  Z M 6.92578125 3.92578125  C 6.975260416666668 3.8763020833333326  7 3.8177083333333326  7 3.75  L 7 1.2499999999999996  C 7 1.1822916666666656  6.975260416666668 1.1236979166666656  6.92578125 1.0742187499999996  C 6.876302083333334 1.0247395833333321  6.817708333333334 1.0000000000000004  6.75 1.0000000000000004  L 5.25 1.0000000000000004  C 5.182291666666667 1.0000000000000004  5.123697916666667 1.0247395833333321  5.07421875 1.0742187499999996  C 5.024739583333334 1.1236979166666656  5 1.1822916666666656  5 1.2499999999999996  L 5 3.75  C 5 3.8177083333333326  5.024739583333334 3.8763020833333326  5.07421875 3.92578125  C 5.123697916666667 3.975260416666666  5.182291666666667 4  5.25 4  L 6.75 4  C 6.817708333333334 4  6.876302083333334 3.975260416666666  6.92578125 3.92578125  Z M 11.84375 3.3124999999999996  C 11.947916666666666 3.5625  12 3.7916666666666665  12 4  L 12 11.25  C 12 11.458333333333334  11.927083333333332 11.635416666666666  11.78125 11.78125  C 11.635416666666668 11.927083333333334  11.458333333333334 12  11.25 12  L 0.75 12  C 0.5416666666666667 12  0.36458333333333337 11.927083333333334  0.21875 11.78125  C 0.07291666666666666 11.635416666666666  0 11.458333333333334  0 11.25  L 0 0.75  C 0 0.5416666666666661  0.07291666666666666 0.3645833333333317  0.21875 0.21874999999999956  C 0.36458333333333337 0.07291666666666607  0.5416666666666667 0  0.75 0  L 8 0  C 8.208333333333334 0  8.4375 0.05208333333333215  8.6875 0.15625000000000044  C 8.9375 0.2604166666666661  9.135416666666668 0.38541666666666563  9.28125 0.5312500000000004  L 11.46875 2.71875  C 11.614583333333334 2.864583333333332  11.739583333333334 3.0625000000000004  11.84375 3.3124999999999996  Z " fill-rule="nonzero" fill="rgba(0, 0, 0, 1)" stroke="none" transform="matrix(1 0 0 1 2324 2682 )" class="fill" />
    <path d="M 3 8  L 3 11  L 9 11  L 9 8  L 3 8  Z " stroke-width="0" stroke-dasharray="0" stroke="rgba(255, 255, 255, 0)" fill="none" transform="matrix(1 0 0 1 2324 2682 )" class="stroke" mask="url(#Clip256)" />
    <path d="M 10 7.749999999999999  L 10 11  L 11 11  L 11 4  C 11 3.9270833333333317  10.973958333333334 3.8268229166666665  10.921875 3.6992187499999996  C 10.869791666666668 3.5716145833333326  10.817708333333334 3.4817708333333317  10.765625 3.4296874999999996  L 8.5703125 1.2343750000000004  C 8.518229166666668 1.1822916666666656  8.4296875 1.1302083333333321  8.3046875 1.078125  C 8.1796875 1.0260416666666665  8.078125 1.0000000000000004  8 1.0000000000000004  L 8 4.25  C 8 4.458333333333334  7.927083333333334 4.635416666666666  7.78125 4.78125  C 7.635416666666666 4.927083333333334  7.458333333333334 5  7.25 5  L 2.75 5  C 2.541666666666667 5  2.3645833333333335 4.927083333333334  2.21875 4.78125  C 2.072916666666667 4.635416666666666  2 4.458333333333334  2 4.25  L 2 1.0000000000000004  L 1 1.0000000000000004  L 1 11  L 2 11  L 2 7.749999999999999  C 2 7.541666666666665  2.072916666666667 7.364583333333332  2.21875 7.21875  C 2.3645833333333335 7.072916666666665  2.541666666666667 6.999999999999999  2.75 6.999999999999999  L 9.25 6.999999999999999  C 9.458333333333334 6.999999999999999  9.635416666666668 7.072916666666665  9.78125 7.21875  C 9.927083333333334 7.364583333333332  10 7.541666666666665  10 7.749999999999999  Z " stroke-width="0" stroke-dasharray="0" stroke="rgba(255, 255, 255, 0)" fill="none" transform="matrix(1 0 0 1 2324 2682 )" class="stroke" mask="url(#Clip256)" />
    <path d="M 6.92578125 3.92578125  C 6.975260416666668 3.8763020833333326  7 3.8177083333333326  7 3.75  L 7 1.2499999999999996  C 7 1.1822916666666656  6.975260416666668 1.1236979166666656  6.92578125 1.0742187499999996  C 6.876302083333334 1.0247395833333321  6.817708333333334 1.0000000000000004  6.75 1.0000000000000004  L 5.25 1.0000000000000004  C 5.182291666666667 1.0000000000000004  5.123697916666667 1.0247395833333321  5.07421875 1.0742187499999996  C 5.024739583333334 1.1236979166666656  5 1.1822916666666656  5 1.2499999999999996  L 5 3.75  C 5 3.8177083333333326  5.024739583333334 3.8763020833333326  5.07421875 3.92578125  C 5.123697916666667 3.975260416666666  5.182291666666667 4  5.25 4  L 6.75 4  C 6.817708333333334 4  6.876302083333334 3.975260416666666  6.92578125 3.92578125  Z " stroke-width="0" stroke-dasharray="0" stroke="rgba(255, 255, 255, 0)" fill="none" transform="matrix(1 0 0 1 2324 2682 )" class="stroke" mask="url(#Clip256)" />
    <path d="M 11.84375 3.3124999999999996  C 11.947916666666666 3.5625  12 3.7916666666666665  12 4  L 12 11.25  C 12 11.458333333333334  11.927083333333332 11.635416666666666  11.78125 11.78125  C 11.635416666666668 11.927083333333334  11.458333333333334 12  11.25 12  L 0.75 12  C 0.5416666666666667 12  0.36458333333333337 11.927083333333334  0.21875 11.78125  C 0.07291666666666666 11.635416666666666  0 11.458333333333334  0 11.25  L 0 0.75  C 0 0.5416666666666661  0.07291666666666666 0.3645833333333317  0.21875 0.21874999999999956  C 0.36458333333333337 0.07291666666666607  0.5416666666666667 0  0.75 0  L 8 0  C 8.208333333333334 0  8.4375 0.05208333333333215  8.6875 0.15625000000000044  C 8.9375 0.2604166666666661  9.135416666666668 0.38541666666666563  9.28125 0.5312500000000004  L 11.46875 2.71875  C 11.614583333333334 2.864583333333332  11.739583333333334 3.0625000000000004  11.84375 3.3124999999999996  Z " stroke-width="0" stroke-dasharray="0" stroke="rgba(255, 255, 255, 0)" fill="none" transform="matrix(1 0 0 1 2324 2682 )" class="stroke" mask="url(#Clip256)" />
  </g>
</svg>