<?xml version="1.0" encoding="utf-8"?>
<svg version="1.1" xmlns:xlink="http://www.w3.org/1999/xlink" width="16px" height="12px" xmlns="http://www.w3.org/2000/svg">
  <defs>
    <pattern id="BGPattern" patternUnits="userSpaceOnUse" alignment="0 0" imageRepeat="None" />
    <mask fill="white" id="Clip257">
      <path d="M 15.710967741935484 1.656565656565657  C 15.903655913978497 1.8451178451178447  16.000000000000004 2.074074074074074  16 2.3434343434343434  C 16.000000000000004 2.6127946127946116  15.903655913978497 2.841750841750841  15.710967741935484 3.03030303030303  L 8.23741935483871 10.343434343434343  L 6.833548387096775 11.717171717171716  C 6.640860215053764 11.905723905723907  6.406881720430109 12  6.131612903225807 12  C 5.8563440860215055 12  5.62236559139785 11.905723905723907  5.429677419354839 11.717171717171716  L 4.025806451612903 10.343434343434343  L 0.28903225806451616 6.686868686868688  C 0.09634408602150547 6.498316498316497  0 6.269360269360268  0 6  C 0 5.73063973063973  0.09634408602150547 5.501683501683502  0.28903225806451616 5.313131313131313  L 1.6929032258064516 3.9393939393939394  C 1.8855913978494625 3.7508417508417504  2.1195698924731188 3.6565656565656552  2.3948387096774195 3.6565656565656566  C 2.670107526881721 3.6565656565656552  2.9040860215053765 3.7508417508417504  3.096774193548387 3.9393939393939394  L 6.131612903225807 6.919191919191919  L 12.903225806451612 0.2828282828282829  C 13.095913978494625 0.09427609427609385  13.329892473118282 0  13.605161290322581 0  C 13.880430107526882 0  14.114408602150538 0.09427609427609385  14.307096774193548 0.2828282828282829  L 15.710967741935484 1.656565656565657  Z " fill-rule="evenodd" />
    </mask>
  </defs>
  <g transform="matrix(1 0 0 1 -2270 -1880 )">
    <path d="M 15.710967741935484 1.656565656565657  C 15.903655913978497 1.8451178451178447  16.000000000000004 2.074074074074074  16 2.3434343434343434  C 16.000000000000004 2.6127946127946116  15.903655913978497 2.841750841750841  15.710967741935484 3.03030303030303  L 8.23741935483871 10.343434343434343  L 6.833548387096775 11.717171717171716  C 6.640860215053764 11.905723905723907  6.406881720430109 12  6.131612903225807 12  C 5.8563440860215055 12  5.62236559139785 11.905723905723907  5.429677419354839 11.717171717171716  L 4.025806451612903 10.343434343434343  L 0.28903225806451616 6.686868686868688  C 0.09634408602150547 6.498316498316497  0 6.269360269360268  0 6  C 0 5.73063973063973  0.09634408602150547 5.501683501683502  0.28903225806451616 5.313131313131313  L 1.6929032258064516 3.9393939393939394  C 1.8855913978494625 3.7508417508417504  2.1195698924731188 3.6565656565656552  2.3948387096774195 3.6565656565656566  C 2.670107526881721 3.6565656565656552  2.9040860215053765 3.7508417508417504  3.096774193548387 3.9393939393939394  L 6.131612903225807 6.919191919191919  L 12.903225806451612 0.2828282828282829  C 13.095913978494625 0.09427609427609385  13.329892473118282 0  13.605161290322581 0  C 13.880430107526882 0  14.114408602150538 0.09427609427609385  14.307096774193548 0.2828282828282829  L 15.710967741935484 1.656565656565657  Z " fill-rule="nonzero" fill="rgba(99, 161, 3, 1)" stroke="none" transform="matrix(1 0 0 1 2270 1880 )" class="fill" />
    <path d="M 15.710967741935484 1.656565656565657  C 15.903655913978497 1.8451178451178447  16.000000000000004 2.074074074074074  16 2.3434343434343434  C 16.000000000000004 2.6127946127946116  15.903655913978497 2.841750841750841  15.710967741935484 3.03030303030303  L 8.23741935483871 10.343434343434343  L 6.833548387096775 11.717171717171716  C 6.640860215053764 11.905723905723907  6.406881720430109 12  6.131612903225807 12  C 5.8563440860215055 12  5.62236559139785 11.905723905723907  5.429677419354839 11.717171717171716  L 4.025806451612903 10.343434343434343  L 0.28903225806451616 6.686868686868688  C 0.09634408602150547 6.498316498316497  0 6.269360269360268  0 6  C 0 5.73063973063973  0.09634408602150547 5.501683501683502  0.28903225806451616 5.313131313131313  L 1.6929032258064516 3.9393939393939394  C 1.8855913978494625 3.7508417508417504  2.1195698924731188 3.6565656565656552  2.3948387096774195 3.6565656565656566  C 2.670107526881721 3.6565656565656552  2.9040860215053765 3.7508417508417504  3.096774193548387 3.9393939393939394  L 6.131612903225807 6.919191919191919  L 12.903225806451612 0.2828282828282829  C 13.095913978494625 0.09427609427609385  13.329892473118282 0  13.605161290322581 0  C 13.880430107526882 0  14.114408602150538 0.09427609427609385  14.307096774193548 0.2828282828282829  L 15.710967741935484 1.656565656565657  Z " stroke-width="0" stroke-dasharray="0" stroke="rgba(255, 255, 255, 0)" fill="none" transform="matrix(1 0 0 1 2270 1880 )" class="stroke" mask="url(#Clip257)" />
  </g>
</svg>