<?xml version="1.0" encoding="utf-8"?>
<svg version="1.1" xmlns:xlink="http://www.w3.org/1999/xlink" width="20px" height="20px" preserveAspectRatio="xMinYMid meet" viewBox="2420 743 20 18" xmlns="http://www.w3.org/2000/svg">
  <path d="M 1835 501  L 1835 815  A 5 5 0 0 0 1840 820 L 2425 820  A 5 5 0 0 0 2430 815 L 2430 753  " stroke-width="2" stroke-dasharray="0" stroke="rgba(0, 153, 204, 1)" fill="none" class="stroke" />
  <path d="M 1835 499  A 3.5 3.5 0 0 0 1831.5 502.5 A 3.5 3.5 0 0 0 1835 506 A 3.5 3.5 0 0 0 1838.5 502.5 A 3.5 3.5 0 0 0 1835 499 Z M 2437.6 754  L 2430 747  L 2422.4 754  L 2437.6 754  Z " fill-rule="nonzero" fill="rgba(0, 153, 204, 1)" stroke="none" class="fill" />
</svg>