<?xml version="1.0" encoding="utf-8"?>
<svg version="1.1" xmlns:xlink="http://www.w3.org/1999/xlink" width="250px" height="134px" xmlns="http://www.w3.org/2000/svg">
  <defs>
    <pattern id="BGPattern" patternUnits="userSpaceOnUse" alignment="0 0" imageRepeat="None" />
    <mask fill="white" id="Clip223">
      <path d="M 0 0  L 196.39999999999998 0  L 200.4 1.072  L 250 67  L 200.4 132.928  L 196.39999999999998 134  L 0 134  L 0 0  Z " fill-rule="evenodd" />
    </mask>
  </defs>
  <g transform="matrix(1 0 0 1 -50 -178 )">
    <path d="M 0 0  L 196.39999999999998 0  L 200.4 1.072  L 250 67  L 200.4 132.928  L 196.39999999999998 134  L 0 134  L 0 0  Z " fill-rule="nonzero" fill="rgba(255, 255, 255, 1)" stroke="none" transform="matrix(1 0 0 1 50 178 )" class="fill" />
    <path d="M 0 0  L 196.39999999999998 0  L 200.4 1.072  L 250 67  L 200.4 132.928  L 196.39999999999998 134  L 0 134  L 0 0  Z " stroke-width="2" stroke-dasharray="0" stroke="rgba(140, 140, 140, 1)" fill="none" transform="matrix(1 0 0 1 50 178 )" class="stroke" mask="url(#Clip223)" />
  </g>
</svg>