<?xml version="1.0" encoding="utf-8"?>
<svg version="1.1" xmlns:xlink="http://www.w3.org/1999/xlink" width="273px" height="134px" xmlns="http://www.w3.org/2000/svg">
  <defs>
    <pattern id="BGPattern" patternUnits="userSpaceOnUse" alignment="0 0" imageRepeat="None" />
    <mask fill="white" id="Clip222">
      <path d="M 0 0  L 219.4 0  L 223.4 0.9816849816849816  L 273 67  L 223.4 133.01831501831504  L 219.4 134  L 0 134  L 0 0  Z " fill-rule="evenodd" />
    </mask>
  </defs>
  <g transform="matrix(1 0 0 1 -300 -178 )">
    <path d="M 0 0  L 219.4 0  L 223.4 0.9816849816849816  L 273 67  L 223.4 133.01831501831504  L 219.4 134  L 0 134  L 0 0  Z " fill-rule="nonzero" fill="rgba(255, 255, 255, 1)" stroke="none" transform="matrix(1 0 0 1 300 178 )" class="fill" />
    <path d="M 0 0  L 219.4 0  L 223.4 0.9816849816849816  L 273 67  L 223.4 133.01831501831504  L 219.4 134  L 0 134  L 0 0  Z " stroke-width="2" stroke-dasharray="0" stroke="rgba(140, 140, 140, 1)" fill="none" transform="matrix(1 0 0 1 300 178 )" class="stroke" mask="url(#Clip222)" />
  </g>
</svg>